{"title":"Haywire 2011 R5 CAM AUDIO XViD - INSPiRAL","uid":7115574,"size":1485403769,"categoryP":"video","categoryS":"movies","magnet":"?xt=urn:btih:acc3fd26a1eccf45e52167c3097c7bdcbfcfcdde&amp;dn=Haywire+2011+R5+CAM+AUDIO+XViD+-+INSPiRAL&amp;tr=udp%3A%2F%2Ftracker.openbittorrent.com%3A80&amp;tr=udp%3A%2F%2Fopen.demonii.com%3A1337&amp;tr=udp%3A%2F%2Ftracker.coppersurfer.tk%3A6969&amp;tr=udp%3A%2F%2Fexodus.desync.com%3A6969","seeders":1,"leechers":0,"uploader":".BONE.","files":4,"time":1332203881,"description":"A black ops super soldier seeks payback after she is betrayed and set up during a mission. \n\nSOURCES:\n\nVIDEO - R5 DVD9 THANKS\nAUDIO - THE AUDIO GUY THANKS\nSUBS - None Add\n\nSTATS:\n\nVideo\nID : 0\nFormat : MPEG-4 Visual\nFormat profile : Advanced Simple@L5\nFormat settings, BVOP : 2\nFormat settings, QPel : No\nFormat settings, GMC : No warppoints\nFormat settings, Matrix : Default (MPEG)\nMuxing mode : Packed bitstream\nCodec ID : XVID\nCodec ID/Hint : XviD\nDuration : 1h 28mn\nBit rate : 2 069 Kbps\nWidth : 720 pixels\nHeight : 528 pixels\nDisplay aspect ratio : 4:3\nFrame rate : 25.000 fps\nColor space : YUV\nChroma subsampling : 4:2:0\nBit depth : 8 bits\nScan type : Progressive\nCompression mode : Lossy\nBits/(Pixel*Frame) : 0.218\nStream size : 1.29 GiB (94%)\nWriting library : XviD 64\n\nAudio\nID : 1\nFormat : MPEG Audio\nFormat version : Version 1\nFormat profile : Layer 3\nMode : Joint stereo\nMode extension : MS Stereo\nCodec ID : 55\nCodec ID/Hint : MP3\nDuration : 1h 28mn\nBit rate mode : Constant\nBit rate : 128 Kbps\nChannel(s) : 2 channels\nSampling rate : 44.1 KHz\nCompression mode : Lossy\nStream size : 81.4 MiB (6%)\nAlignment : Split accross interleaves\nInterleave, duration : 40 ms (1.00 video frame)\nInterleave, preload duration : 500 ms\n\nNOTES:\n\nOne of THE worse R5's i have ever seen Q wise ...noise,overcropped loads,colouring ...yuk !!\nSo done all i can cleaning it,correcting colours,brightness and contrast levels...removing some noise whilst keeping the sharpness.\nAudio we've got the raw files so was able to sync it no problem and once worked out the times ...all synced with no cuts\nAdd the end credit music off the russian release aswell .....\nThe audio after i got it sync'd i remastered it and gave it some lovin before muxing back to our encode.","torrent":{"xt":"urn:btih:acc3fd26a1eccf45e52167c3097c7bdcbfcfcdde","amp;dn":"Haywire+2011+R5+CAM+AUDIO+XViD+-+INSPiRAL","amp;tr":["udp%3A%2F%2Ftracker.openbittorrent.com%3A80","udp%3A%2F%2Fopen.demonii.com%3A1337","udp%3A%2F%2Ftracker.coppersurfer.tk%3A6969","udp%3A%2F%2Fexodus.desync.com%3A6969"],"infoHash":"acc3fd26a1eccf45e52167c3097c7bdcbfcfcdde","infoHashBuffer":{"type":"Buffer","data":[172,195,253,38,161,236,207,69,229,33,103,195,9,124,123,220,191,207,205,222]},"announce":[],"urlList":[]}}